<svg width="548" height="830" viewBox="0 0 548 830" fill="none" xmlns="http://www.w3.org/2000/svg">
<path d="M481.155 681.61C388.014 907.419 29.9919 812.915 22.7224 646.172C19.5954 574.445 17.7294 516.406 16.6724 473.976C15.7637 437.496 14.2334 412.639 15.4529 400.372C16.6725 388.105 12.2725 352.666 74.5175 352.666C136.763 352.666 123.587 400.372 129.984 400.372C129.984 400.372 109.958 283.475 175.383 272.57C210.243 266.761 231.988 281.45 243.988 300.935L214.455 119.99C206.277 91.5183 203.005 31.121 255.346 17.309C320.773 0.0439425 326.225 84.0974 332.131 119.99C336.857 148.705 360.755 287.072 372.114 352.666L410.731 89.5495C411.034 60.4716 425.542 5.31431 481.155 17.309C550.67 32.3023 531.134 93.1843 523.864 133.166C518.049 165.152 492.968 332.774 481.155 412.587C477.107 422.578 472.895 452.335 488.424 491.435C513.362 524.424 521.821 583.02 481.155 681.61Z" fill="#D9D9D9"/>
<path d="M243.988 708.416C237.172 662.225 249.44 570.114 353.03 571.205H214.455C186.589 573.477 132.037 553.213 136.763 453.984H255.346M16.6724 473.976C17.7294 516.406 19.5954 574.445 22.7224 646.172C29.9919 812.915 388.014 907.419 481.155 681.61C521.821 583.02 513.362 524.424 488.424 491.435M16.6724 473.976C15.7637 437.496 14.2334 412.639 15.4529 400.372C16.6725 388.105 12.2725 352.666 74.5175 352.666C136.763 352.666 123.587 400.372 129.984 400.372M16.6724 473.976C17.3841 497.905 29.7365 540.31 74.5175 540.31C150.847 540.31 129.984 449.441 129.984 400.372M129.984 400.372C129.984 400.372 109.958 283.475 175.383 272.57C210.243 266.761 231.988 281.45 243.988 300.935M488.424 491.435C467.668 463.978 435.497 454.26 410.731 453.984H383.925H255.346M488.424 491.435C472.895 452.335 477.107 422.578 481.155 412.587C492.968 332.774 518.049 165.152 523.864 133.166C531.134 93.1843 550.67 32.3023 481.155 17.309C425.542 5.31431 411.034 60.4716 410.731 89.5495L372.114 352.666C360.755 287.072 336.857 148.705 332.131 119.99C326.225 84.0974 320.773 0.0439421 255.346 17.309C203.005 31.121 206.277 91.5183 214.455 119.99L243.988 300.935M255.346 453.984V352.666C257.54 338.797 254.511 318.022 243.988 300.935" stroke="#44A5FF" stroke-width="30" stroke-linecap="round" stroke-linejoin="round"/>
</svg>
