<svg width="664" height="862" viewBox="0 0 664 862" fill="none" xmlns="http://www.w3.org/2000/svg">
<path d="M239.261 578.01C251.622 552.222 310.482 506.597 447.035 530.401M447.035 530.401C479.573 492.116 535.38 426.257 595.367 460.178C653.215 492.889 670.078 502.43 611.727 556.586C553.376 610.741 442.48 757.93 426.312 776.777C402.317 804.748 319.971 847 253.985 847C193.443 847 15.1276 830.932 15.1276 635.14C15.1276 478.507 15.1276 278.272 15.1276 197.733C13.8552 173.731 21.5626 125.725 62.572 125.725C113.834 125.725 114.924 158.456 114.924 197.733M447.035 530.401C450.489 425.463 457.396 212.017 457.396 197.733C457.396 179.879 469.394 87.0426 405.044 78.7118C353.564 72.0471 344.693 155.283 346.693 197.733M114.924 197.733C114.924 229.155 114.924 137.032 114.924 87.0426C114.924 57.2864 116.015 13.6059 166.186 15.0342C228.9 16.8195 226.719 62.0484 225.628 197.733M114.924 197.733V386.98M225.628 197.733C222.719 136.834 221.265 15.0353 279.616 15.0342C337.967 15.033 351.056 63.8337 346.693 197.733M225.628 197.733V386.98M346.693 197.733V386.98" stroke="#48FF44" stroke-width="30" stroke-linecap="round" stroke-linejoin="round"/>
</svg>
